<svg display="none">
	<defs>
		<g id="alert">
			<path xmlns="http://www.w3.org/2000/svg" fill="none" stroke="#000" stroke-miterlimit="10" stroke-width="32" d="M448,256c0-106-86-192-192-192S64,150,64,256s86,192,192,192S448,362,448,256Z"/><path xmlns="http://www.w3.org/2000/svg" fill="none" stroke="#000" stroke-linecap="round" stroke-linejoin="round" stroke-width="32" d="M250.26,166.05,256,288l5.73-121.95a5.74,5.74,0,0,0-5.79-6h0A5.74,5.74,0,0,0,250.26,166.05Z"/><path xmlns="http://www.w3.org/2000/svg" d="M256,367.91a20,20,0,1,1,20-20A20,20,0,0,1,256,367.91Z"/>
		</g>
		<g id="icon-checkmark">
			<g xmlns="http://www.w3.org/2000/svg" fill="none" fill-rule="evenodd" stroke="#000" transform="translate(2 2)"><circle cx="22" cy="22" r="22"/><path d="m11.3829457 21.6774194 7.3720626 7.3225806 14.0946041-14"/></g>
		</g>
		<g id="icon-ue-flag">
			<g xmlns="http://www.w3.org/2000/svg" fill="none" fill-rule="evenodd"><g fill="#000"><path fill-opacity=".05" d="m4.5 4.5h25.5v18h-25.5z" transform="translate(1 3)"/><path d="m13.5 6c.4142136 0 .75-.33578644.75-.75s-.3357864-.75-.75-.75-.75.33578644-.75.75.3357864.75.75.75z" transform="translate(1 3)"/><path d="m13.5 16.5c.4142136 0 .75-.3357864.75-.75s-.3357864-.75-.75-.75-.75.3357864-.75.75.3357864.75.75.75z" transform="translate(1 3)"/><path d="m18.75 11.25c.4142136 0 .75-.3357864.75-.75s-.3357864-.75-.75-.75-.75.3357864-.75.75.3357864.75.75.75z" transform="rotate(90 17.75 12.5)"/><path d="m8.25 11.25c.41421356 0 .75-.3357864.75-.75s-.33578644-.75-.75-.75-.75.3357864-.75.75.33578644.75.75.75z" transform="rotate(90 7.25 12.5)"/><path d="m17.2123106 14.9623106c.4142136 0 .75-.3357864.75-.75s-.3357864-.75-.75-.75-.75.3357864-.75.75.3357864.75.75.75z" transform="rotate(135 17.091 15.92)"/><path d="m9.7876894 7.5376894c.4142136 0 .75-.33578644.75-.75s-.3357864-.75-.75-.75c-.41421356 0-.75.33578644-.75.75s.33578644.75.75.75z" transform="rotate(135 9.666 8.495)"/><path d="m9.7876894 14.9623106c.4142136 0 .75-.3357864.75-.75s-.3357864-.75-.75-.75c-.41421356 0-.75.3357864-.75.75s.33578644.75.75.75z" transform="rotate(-135 10.909 15.505)"/><path d="m17.2123106 7.5376894c.4142136 0 .75-.33578644.75-.75s-.3357864-.75-.75-.75-.75.33578644-.75.75.3357864.75.75.75z" transform="rotate(-135 18.334 8.08)"/></g><path stroke="#000" stroke-linecap="round" stroke-linejoin="round" d="m.75 1.5h25.3906929v18h-25.3906929z" transform="translate(1 3)"/><path fill="#d8d8d8" stroke="#000" stroke-linecap="round" stroke-linejoin="round" d="m.75 0v26.027153" transform="translate(1 3)"/></g>
		</g>
		<g id="icon-world">
			<g xmlns="http://www.w3.org/2000/svg" fill="none" fill-rule="evenodd" transform="translate(1 2)"><circle cx="18" cy="14.368" r="13" fill="#000" fill-opacity=".05"/><g stroke="#000"><circle cx="13" cy="13.368" r="13"/><path d="m17.5454545 4.36842105h-3.4090909l-2.0454545 1.71428572v1.14285714h-2.0454546l-2.0454545 1.14285714v1.14285715h3.4090909l.6818182.5714286h1.3636364l1.3636363 1.1428571h2.7272727l1.3636364 1.1428572 1.3636364-1.1428572h2.7272727"/><path d="m15.5 15.2434211h-1.25l-1.875-1.875h-2.5l-1.875 1.875 1.25 3.125h1.875l1.25 1.25v3.125l.625.625h1.25l1.875-1.875v-1.875l1.875-1.875z"/></g></g>
		</g>
		<g id="laptop">
			<path xmlns="http://www.w3.org/2000/svg" fill="#000000" d="M1345 8706 c-111 -35 -209 -123 -242 -218 -17 -51 -18 -171 -18 -3103 l0 -3050 22 -48 c48 -104 120 -168 234 -209 l64 -23 2175 -5 2175 -5 73 -22 c40 -11 76 -24 80 -28 7 -7 20 -870 13 -893 -4 -15 -17 -18 -171 -32 -284 -26 -517 -75 -629 -132 -92 -47 -95 -57 -41 -114 88 -91 251 -144 565 -184 428 -54 948 -54 1361 0 331 43 467 102 481 208 5 36 2 45 -24 71 -52 52 -245 100 -560 140 -84 11 -160 24 -170 30 -17 9 -18 32 -15 368 4 363 14 477 47 528 8 13 38 27 86 40 72 20 124 20 2294 25 2027 5 2224 6 2267 22 114 39 190 107 230 207 l23 56 0 3040 c0 2863 -1 3043 -17 3096 -35 113 -121 204 -220 234 -46 13 -597 15 -5047 14 -4006 0 -5004 -3 -5036 -13z m9880 -379 c33 -10 66 -25 72 -34 10 -13 13 -603 12 -2877 0 -1574 -4 -2887 -8 -2919 -4 -33 -13 -62 -22 -68 -8 -5 -1976 -9 -4891 -9 l-4878 0 -14 23 c-9 12 -22 63 -31 112 -14 80 -15 392 -12 2855 2 2511 4 2770 19 2823 9 33 21 64 27 70 6 6 48 19 94 28 77 17 367 17 4827 16 4521 -2 4748 -3 4805 -20z" transform="matrix(.1 0 0 -.1 0 950)"/>
		</g>
	</defs>
</svg>
